<?xml version="1.0" encoding="UTF-8"?>
<svg version="1.1" viewBox="0 0 980 848" width="1280" height="1280" xmlns="http://www.w3.org/2000/svg">
<path transform="translate(443,130)" d="m0 0h17l1 146 2 16 6 26 4 14 8 16 7 11 9 10 7 8 13 13 15 11 9 5 13 6 29 8 10 1 159 1 1 1v17l-140 1-18 1-17 3-20 6-17 8-14 9-10 8-12 11-8 7-9 10-8 14-8 17-5 19-5 22-1 10-1 96v41l-1 9h-12l-5-2v-157l-2-15-6-24-8-18-7-10-9-10-2-4-4-2-10-10-11-9-13-8-12-6-20-8-23-6-21-2-143-1-1-1v-9l1-8 165-1 15-2 2-2 18-4 19-10 12-9 12-11 11-11 7-8 11-14 8-14 4-8 6-25 1-9v-163z" fill="#101129"/>
<path transform="translate(447,327)" d="m0 0 4 2 5 7-1 5 2 1 1-2 4 6 11 7 6 10 1 4h2l4 7 2 1 4 9 5 5 5 1 15 6v2l4 1 4 4 7 6 11 5v5l-4 3h-2l1 9 4 1 2 2 5 1v2l4 1 2 4-3 5-10 2-5 4-1 2-7 3-8 4-3 4h-3l-1 3h-3l-1 3-5 4-6 3-1 2-7 4-2 4-5 5-3 4-3 12-5 7-6 3-1 4-5 3-4 1-2 1-5-4v-2l-9-2-5-5-5-3-6-7-4-1v-2l-3-1-6-11-2-4-5-2-2-3-5-3-9-10-3-3v-2l-4-2-7-5-7-4-2-4h-4v-2l-5-1-10-11-5-5h2l2-4 15-6h2l2-5 10-4 9-9 7-3 2-4 5-4h3l1-3h2l2-5h2l2-4 1-4 5-4 6-10h2l1-3 10-8 4-8 3-3h2l-1-3 2-7z" fill="#111016"/>
<path transform="translate(458,148)" d="m0 0h1l1 120 3 24 6 26 4 14 8 16 7 11 9 10 7 8 13 13 15 11 9 5 13 6 29 8 10 1 159 1 1 1v17l-157 1-11-1h-16l-6 1-1 5-5 3-10 1-9 3-2 4h-2v2l-9 3-5 3-2 3h-2l-2 5-5 3-7 6h-2l-2 4-3 1v2l-5 5-3 4h-2l-2 5-3 7h-2l1-9 3-6 5-6 2-1 2-4 4-3h3l2-4 6-3 5-5 3-1 1-2h3l2-4 8-5 5-2h3l1-3 5-4 10-2 2-5-2-3-3-1v-2h-6l-2-3-3-1-2-6 1-3 5-3 1-5-9-3-5-3-4-4-4-3v-2l-4-1v-2l-5-1-12-5-4-1-5-5-3-6v-3l-4-2-2-6h-2l-7-13-12-8-4-4-3-1 1-5-6-8-4 2-1 9h-2l-1 3h-2l-2 5-2 4-10 8-1 2h-2l-2 5-6 8-2 1 1-5 5-8 2-3h2v-3l7-6 3-6 7-8 3-15 5-5 1-2h2l1-9 2-25 2-21 1-9 1-25v-70z" fill="#0F0F26"/>
<path transform="translate(443,130)" d="m0 0h17v138h-1l-1-113v75l-1 26-2 11-2 30-3 17h-2l-2 5-3 2-3 15-7 8-5 8-4 4h-2v3l-3 3v2h-2l-2 5-5 8-3 3-5 6-4 4h-2l-1 3-8 7-7 2-1 3h-3v2l-4 1v2l-11 5-2 4-10 3-5 3-15 6-2 1h-14l-17 2h-89l-22 1v2l-3 1 103 1v1h-134l-1-1v-9l1-8 165-1 15-2 2-2 18-4 19-10 12-9 12-11 11-11 7-8 11-14 8-14 4-8 6-25 1-9v-163z" fill="#15193D"/>
<path transform="translate(421,507)" d="m0 0 5 2 1 3 3 1 3 7 4 3 5 11 1 9 1 4 4 1 4 8 1 6 1 23 1 9v9h2l-1 6-1 2h2l1 15v50l-1 4v14l2 6 1 23-1 9h-12l-5-2v-157l-2-15-6-24-8-18-5-8z" fill="#14173A"/>
<path transform="translate(519,392)" d="m0 0 9 6 10 7 16 7 29 8 10 1 159 1 1 1v17h-119v-1l96-1-4-1-1-2-16-1h-16l-15 1h-12l-11-1h-46l-15-2-16-3-1-3h-6l-12-3-7-2-5-5-2-4-13-4-7-7-6-5z" fill="#14173A"/>
<path transform="translate(410,376)" d="m0 0 1 3-3 4h-2l-2 5-3 3-5 3-3 1-2 5-6 3-5 4-7 6-7 2-3 5-17 7-2 4 1 3 4 2 9 10 4 1v2h4l5 5 6 3 7 6 13 13 3 4 4 2 9 9 6 11 2 1-1 3-12-12v-2l-4-2-10-10-11-9-13-8-12-6-20-8-23-6-30-3-105-1 2-2h3v-2l7-1 25-1h82l18-2h11l13-6 7-3 9-3 2-1 3-5 7-3h3v-2l4-1v-2l3-1 3-3 6-3 7-6 5-6 5-4 3-5z" fill="#0F0F26"/>
<path transform="translate(440,554)" d="m0 0 1 2h2v2h2v6h2l1 16 1 10 1 16 1 57v59l1 7 7 1v2h-12l-5-2v-157z" fill="#2D3361"/>
<path transform="translate(443,130)" d="m0 0h17v1l-11 1 1 11v99l-1 27-1 28-3 12-5 2 2-17v-163z" fill="#2B3160"/>
<path transform="translate(569,439)" d="m0 0h21l6 1-1 2-17 3-20 6-17 8-14 9-10 8-12 11-8 7-9 10-8 14-8 17-5 19-5 22h-3l-2-12 3-16 4-11 7-14 6-8 3-9 5-8h2l2-4 4-5h2v-2l7-6 8-7 4-1 2-5 6-5 5-3 7-1v-2l7-6 11-3h5l5-2 1-5z" fill="#171A3F"/>
<path transform="translate(587,421)" d="m0 0 165 1 1 1v17h-119v-1h116l-2-8-14-1-13-2h-28l-11-1h-66l-4-1h-10l-7-1-8-1z" fill="#2B3160"/>
<path transform="translate(151,422)" d="m0 0h148v1l-10 1v1l-20 2h-44l-58 1-12 4-4 1v6h-1v-9z" fill="#2B3160"/>
<path transform="translate(327,437)" d="m0 0 18 4 16 9 6 3 1 2 7 4 10 7v2l3 1 6 8 7 6v2l3 1v2l3 1-1 3-12-12-11-9-13-8-12-6-20-8-23-6-9-2 4-2 12-1z" fill="#16193D"/>
<path transform="translate(469,323)" d="m0 0 2 3 6 15 8 14 11 13 9 10 12 12-2 1-5-2-4-4-3-1-2-5h-2l-2-4v-3l-6-2-5-7-6-3-2-8-3-3-6-8-1-1v-9z" fill="#171B3F"/>
<path transform="translate(569,439)" d="m0 0h21l6 1-1 2-17 3-21 6 2-4 3-1 1-5z" fill="#15183C"/>
<path transform="translate(461,286)" d="m0 0h1l7 32-1 3-5-3-3-6v-23z" fill="#16193E"/>
<path transform="translate(405,372)" d="m0 0 2 2-5 5-5 8-8 5-4 4-3 2-4-1 11-9z" fill="#2A305F"/>
<path transform="translate(357,410)" d="m0 0h2v3l-4 3-16 3-6-1 4-2 16-4z" fill="#313764"/>
<path transform="translate(438,314)" d="m0 0h1l1 7-3 13-4 5-3 1 2-6 4-10z" fill="#2B3160"/>
<path transform="translate(551,412)" d="m0 0 10 2 11 3-4 2-11-1-6-4z" fill="#2B3160"/>
<path transform="translate(462,292)" d="m0 0 2 4 3 12-1 3-3-1-2-7v-8z" fill="#2E3462"/>
<path transform="translate(432,528)" d="m0 0h2l4 6 2 10-1 6-2-4-3-12z" fill="#2B3160"/>
<path transform="translate(576,441)" d="m0 0h19v1l-17 3-6 1 1-4z" fill="#2F3463"/>
<path transform="translate(315,442)" d="m0 0h9l9 3v2l-18-4z" fill="#313664"/>
</svg>
